<svg viewBox="0 0 128 128" xmlns="http://www.w3.org/2000/svg">
  <defs>
    <clipPath id="face">
      <ellipse cx="64" cy="73" rx="40" ry="37"/>
    </clipPath>
  </defs>

  <rect width="128" height="128" rx="28" fill="#15140f"/>

  <!-- arı kanatları -->
  <ellipse cx="28" cy="58" rx="16" ry="11" fill="#fff8d6" opacity="0.22" transform="rotate(-25 28 58)"/>
  <ellipse cx="100" cy="58" rx="16" ry="11" fill="#fff8d6" opacity="0.22" transform="rotate(25 100 58)"/>

  <!-- arı antenleri -->
  <path d="M52 38 C46 22 42 18 39 13" stroke="#1a1a1a" stroke-width="3.5" fill="none" stroke-linecap="round"/>
  <path d="M76 38 C82 22 86 18 89 13" stroke="#1a1a1a" stroke-width="3.5" fill="none" stroke-linecap="round"/>
  <circle cx="38" cy="12" r="5" fill="#1a1a1a"/>
  <circle cx="90" cy="12" r="5" fill="#1a1a1a"/>

  <!-- inek boynuzları -->
  <path d="M30 46 C17 42 15 31 22 27 C26 35 34 40 39 44 Z" fill="#f3e6b0"/>
  <path d="M98 46 C111 42 113 31 106 27 C102 35 94 40 89 44 Z" fill="#f3e6b0"/>

  <!-- inek kulakları -->
  <ellipse cx="24" cy="66" rx="12" ry="8" fill="#e0a92a" transform="rotate(-22 24 66)"/>
  <ellipse cx="104" cy="66" rx="12" ry="8" fill="#e0a92a" transform="rotate(22 104 66)"/>

  <!-- yüz -->
  <ellipse cx="64" cy="73" rx="40" ry="37" fill="#facc15"/>

  <!-- arı çizgileri (yüze kırpılmış) -->
  <g clip-path="url(#face)">
    <rect x="18" y="50" width="92" height="9" fill="#1a1a1a"/>
    <rect x="18" y="71" width="92" height="9" fill="#1a1a1a"/>
  </g>

  <!-- gözler -->
  <circle cx="50" cy="65" r="5.2" fill="#1a1a1a"/>
  <circle cx="78" cy="65" r="5.2" fill="#1a1a1a"/>
  <circle cx="51.6" cy="63.4" r="1.7" fill="#ffffff"/>
  <circle cx="79.6" cy="63.4" r="1.7" fill="#ffffff"/>

  <!-- inek burnu -->
  <ellipse cx="64" cy="93" rx="24" ry="15" fill="#fff1c2"/>
  <ellipse cx="55" cy="93" rx="3.3" ry="4.4" fill="#c98a2a"/>
  <ellipse cx="73" cy="93" rx="3.3" ry="4.4" fill="#c98a2a"/>
</svg>
